<?xml version="1.0" encoding="UTF-8" standalone="no"?>
<svg width="150px" height="39px" viewBox="0 0 150 39" version="1.1" xmlns="http://www.w3.org/2000/svg" xmlns:xlink="http://www.w3.org/1999/xlink">
    <!-- Generator: Sketch 3.6.1 (26313) - http://www.bohemiancoding.com/sketch -->
    <title>Logo - Dark</title>
    <desc>Created with Sketch.</desc>
    <defs></defs>
    <g id="Page-1" stroke="none" stroke-width="1" fill="none" fill-rule="evenodd">
        <g id="Logo---Dark">
            <rect id="Rectangle-2" fill="#000000" x="0" y="0" width="150" height="39"></rect>
            <rect id="Rectangle-1" fill="#B3B3B3" x="9" y="14" width="12" height="12"></rect>
            <path d="M26.352,29.798 C27.198,29.798 28.35,29.51 29.052,28.808 C29.826,28.016 30.096,26.918 30.096,25.226 L30.096,17.288 L28.512,17.288 L28.512,24.614 C28.512,26.702 28.332,27.386 27.9,27.872 C27.522,28.304 26.91,28.502 26.172,28.556 L26.352,29.798 Z M29.304,13.85 C28.71,13.85 28.314,14.3 28.314,14.84 C28.314,15.362 28.692,15.812 29.268,15.812 C29.916,15.812 30.276,15.362 30.276,14.84 C30.276,14.3 29.898,13.85 29.304,13.85 L29.304,13.85 Z M39.978,17.288 L38.394,17.288 L38.394,22.616 C38.394,22.922 38.34,23.21 38.25,23.426 C37.962,24.146 37.224,24.884 36.162,24.884 C34.74,24.884 34.218,23.75 34.218,22.094 L34.218,17.288 L32.634,17.288 L32.634,22.382 C32.634,25.424 34.272,26.198 35.64,26.198 C37.188,26.198 38.124,25.28 38.52,24.578 L38.556,24.578 L38.646,26 L40.05,26 C39.996,25.316 39.978,24.524 39.978,23.606 L39.978,17.288 Z M42.012,25.586 C42.624,25.946 43.506,26.198 44.46,26.198 C46.494,26.198 47.7,25.118 47.7,23.57 C47.7,22.274 46.908,21.518 45.414,20.96 C44.28,20.51 43.776,20.186 43.776,19.466 C43.776,18.818 44.28,18.278 45.216,18.278 C46.026,18.278 46.656,18.584 46.998,18.8 L47.376,17.648 C46.908,17.342 46.134,17.108 45.252,17.108 C43.398,17.108 42.246,18.26 42.246,19.664 C42.246,20.708 42.984,21.554 44.568,22.13 C45.72,22.562 46.17,22.958 46.17,23.714 C46.17,24.452 45.63,25.01 44.496,25.01 C43.704,25.01 42.876,24.686 42.39,24.398 L42.012,25.586 Z M50.094,15.668 L50.094,17.288 L48.744,17.288 L48.744,18.494 L50.094,18.494 L50.094,23.246 C50.094,24.272 50.274,25.046 50.706,25.532 C51.084,25.946 51.678,26.198 52.416,26.198 C53.028,26.198 53.514,26.09 53.82,25.982 L53.748,24.776 C53.514,24.848 53.262,24.884 52.83,24.884 C51.948,24.884 51.642,24.272 51.642,23.192 L51.642,18.494 L53.91,18.494 L53.91,17.288 L51.642,17.288 L51.642,15.2 L50.094,15.668 Z M57.276,26 L57.276,17.288 L55.692,17.288 L55.692,26 L57.276,26 Z M56.484,13.85 C55.89,13.85 55.494,14.3 55.494,14.84 C55.494,15.38 55.872,15.812 56.448,15.812 C57.078,15.812 57.456,15.38 57.456,14.84 C57.456,14.282 57.06,13.85 56.484,13.85 L56.484,13.85 Z M59.904,26 L61.488,26 L61.488,20.762 C61.488,20.492 61.524,20.222 61.596,20.024 C61.884,19.142 62.694,18.404 63.72,18.404 C65.214,18.404 65.736,19.574 65.736,20.978 L65.736,26 L67.32,26 L67.32,20.816 C67.32,17.828 65.448,17.108 64.242,17.108 C62.802,17.108 61.794,17.918 61.362,18.728 L61.326,18.728 L61.236,17.288 L59.832,17.288 C59.886,18.008 59.904,18.728 59.904,19.646 L59.904,26 Z M68.742,17.198 L71.946,26 L74.682,26 L77.958,17.198 L75.078,17.198 L73.944,21.284 C73.746,22.04 73.602,22.706 73.458,23.426 L73.404,23.426 C73.26,22.724 73.116,22.04 72.9,21.284 L71.712,17.198 L68.742,17.198 Z M83.16,16.982 C80.316,16.982 78.444,18.8 78.444,21.662 C78.444,24.506 80.424,26.198 82.998,26.198 C85.356,26.198 87.642,24.722 87.642,21.5 C87.642,18.836 85.842,16.982 83.16,16.982 L83.16,16.982 Z M83.07,18.944 C84.312,18.944 84.816,20.276 84.816,21.572 C84.816,23.174 84.15,24.236 83.07,24.236 C81.9,24.236 81.27,23.102 81.27,21.59 C81.27,20.294 81.774,18.944 83.07,18.944 L83.07,18.944 Z M88.83,25.568 C89.496,25.928 90.522,26.198 91.674,26.198 C94.194,26.198 95.472,24.992 95.472,23.336 C95.454,22.058 94.77,21.194 93.096,20.618 C92.016,20.24 91.674,20.024 91.674,19.592 C91.674,19.16 92.052,18.89 92.718,18.89 C93.456,18.89 94.23,19.178 94.626,19.394 L95.094,17.504 C94.554,17.234 93.654,16.982 92.628,16.982 C90.45,16.982 89.046,18.224 89.046,19.88 C89.028,20.924 89.73,21.914 91.566,22.526 C92.574,22.868 92.844,23.084 92.844,23.552 C92.844,24.002 92.502,24.272 91.674,24.272 C90.864,24.272 89.82,23.93 89.316,23.624 L88.83,25.568 Z M96.642,25.568 C97.308,25.928 98.334,26.198 99.486,26.198 C102.006,26.198 103.284,24.992 103.284,23.336 C103.266,22.058 102.582,21.194 100.908,20.618 C99.828,20.24 99.486,20.024 99.486,19.592 C99.486,19.16 99.864,18.89 100.53,18.89 C101.268,18.89 102.042,19.178 102.438,19.394 L102.906,17.504 C102.366,17.234 101.466,16.982 100.44,16.982 C98.262,16.982 96.858,18.224 96.858,19.88 C96.84,20.924 97.542,21.914 99.378,22.526 C100.386,22.868 100.656,23.084 100.656,23.552 C100.656,24.002 100.314,24.272 99.486,24.272 C98.676,24.272 97.632,23.93 97.128,23.624 L96.642,25.568 Z M105.84,26.198 C106.506,26.198 106.938,25.712 106.938,25.064 C106.938,24.398 106.506,23.93 105.876,23.93 C105.246,23.93 104.796,24.416 104.796,25.064 C104.796,25.712 105.228,26.198 105.84,26.198 L105.84,26.198 Z M114.84,24.506 C114.39,24.704 113.796,24.92 112.896,24.92 C111.168,24.92 109.872,23.678 109.872,21.662 C109.872,19.862 110.952,18.368 112.95,18.368 C113.814,18.368 114.408,18.584 114.786,18.782 L115.146,17.576 C114.714,17.342 113.886,17.108 112.95,17.108 C110.106,17.108 108.27,19.07 108.27,21.752 C108.27,24.416 109.98,26.198 112.608,26.198 C113.778,26.198 114.696,25.892 115.11,25.694 L114.84,24.506 Z M120.546,17.108 C118.152,17.108 116.226,18.818 116.226,21.716 C116.226,24.47 118.062,26.198 120.402,26.198 C122.49,26.198 124.74,24.794 124.74,21.572 C124.74,18.926 123.048,17.108 120.546,17.108 L120.546,17.108 Z M120.51,18.296 C122.382,18.296 123.12,20.15 123.12,21.626 C123.12,23.588 121.986,25.01 120.474,25.01 C118.926,25.01 117.846,23.57 117.846,21.662 C117.846,20.024 118.656,18.296 120.51,18.296 L120.51,18.296 Z M126.738,26 L128.286,26 L128.286,20.762 C128.286,20.492 128.322,20.204 128.412,19.988 C128.664,19.196 129.402,18.404 130.374,18.404 C131.58,18.404 132.192,19.394 132.192,20.78 L132.192,26 L133.74,26 L133.74,20.618 C133.74,20.33 133.794,20.06 133.866,19.826 C134.154,19.07 134.838,18.404 135.756,18.404 C137.016,18.404 137.646,19.394 137.646,21.086 L137.646,26 L139.194,26 L139.194,20.888 C139.194,17.864 137.484,17.108 136.314,17.108 C135.486,17.108 134.928,17.324 134.406,17.72 C134.046,17.99 133.686,18.35 133.416,18.854 L133.38,18.854 C133.002,17.828 132.102,17.108 130.932,17.108 C129.474,17.108 128.664,17.882 128.178,18.71 L128.124,18.71 L128.052,17.288 L126.666,17.288 C126.702,18.008 126.738,18.728 126.738,19.646 L126.738,26 Z" id="Text-Shape" fill="#BFBFBF"></path>
        </g>
    </g>
</svg>